<svg width="482" height="120" viewBox="0 0 482 120" version="1.1" xmlns="http://www.w3.org/2000/svg" xmlns:xlink="http://www.w3.org/1999/xlink" xmlns:figma="http://www.figma.com/figma/ns">
<title>easeljs</title>
<desc>Created using Figma</desc>
<g id="Canvas" transform="translate(-559 -471)" figma:type="canvas">
<g id="easeljs" style="mix-blend-mode:normal;" figma:type="frame">
<g id="Group" style="mix-blend-mode:normal;" figma:type="frame">
<g id="Vector" style="mix-blend-mode:normal;" figma:type="vector">
<use xlink:href="#path0_fill" transform="translate(559 471)" fill="#FFFFFF" style="mix-blend-mode:normal;"/>
</g>
</g>
</g>
</g>
<defs>
<path id="path0_fill" d="M 156.628 31.973L 193.932 31.973C 194.208 31.973 194.432 32.197 194.432 32.473L 194.432 42.561C 194.432 42.837 194.208 43.061 193.932 43.061L 169.311 43.061C 169.035 43.061 168.811 43.285 168.811 43.561L 168.811 53.481C 168.811 53.757 169.035 53.981 169.311 53.981L 188.219 53.981C 188.495 53.981 188.719 54.205 188.719 54.481L 188.719 64.233C 188.719 64.509 188.495 64.733 188.219 64.733L 169.311 64.733C 169.035 64.733 168.811 64.957 168.811 65.233L 168.811 76.329C 168.811 76.605 169.035 76.829 169.311 76.829L 195.78 76.829C 196.056 76.829 196.28 77.053 196.28 77.329L 196.28 87.5C 196.28 87.776 196.056 88 195.78 88L 156.629 88C 156.353 88 156.129 87.776 156.129 87.5L 156.129 32.473C 156.128 32.197 156.352 31.973 156.628 31.973L 156.628 31.973ZM 221.238 31.973L 234.57 31.973C 234.78 31.973 234.967 32.104 235.04 32.301L 255.17 87.328C 255.289 87.654 255.048 88 254.7 88L 241.915 88C 241.7 88 241.509 87.862 241.441 87.658L 237.385 75.49C 237.317 75.286 237.126 75.148 236.911 75.148L 217.892 75.148C 217.677 75.148 217.486 75.286 217.418 75.49L 213.363 87.658C 213.295 87.862 213.104 88 212.889 88L 200.697 88C 200.348 88 200.107 87.652 200.229 87.325L 220.772 32.298C 220.842 32.102 221.029 31.973 221.238 31.973L 221.238 31.973ZM 234.037 64.667L 227.912 45.615C 227.764 45.154 227.113 45.152 226.961 45.612L 220.686 64.664C 220.579 64.987 220.82 65.32 221.161 65.32L 233.56 65.32C 233.9 65.32 234.141 64.99 234.037 64.667ZM 264.965 71.674C 265.16 71.463 265.486 71.46 265.687 71.666C 266.331 72.328 267.064 72.999 267.886 73.679C 268.865 74.491 269.957 75.233 271.162 75.905C 272.365 76.577 273.682 77.123 275.11 77.543C 276.538 77.963 278.063 78.173 279.688 78.173C 280.639 78.173 281.59 78.034 282.543 77.753C 283.495 77.474 284.362 77.068 285.147 76.535C 285.93 76.004 286.56 75.359 287.037 74.603C 287.513 73.847 287.751 72.994 287.751 72.041C 287.751 69.97 286.743 68.359 284.728 67.211C 282.711 66.065 279.52 64.93 275.152 63.81C 273.023 63.306 271.048 62.579 269.23 61.625C 267.409 60.674 265.84 59.525 264.526 58.182C 263.21 56.838 262.187 55.298 261.46 53.562C 260.731 51.827 260.368 49.895 260.368 47.766C 260.368 45.414 260.788 43.202 261.628 41.13C 262.468 39.059 263.741 37.224 265.45 35.628C 267.157 34.032 269.285 32.772 271.834 31.848C 274.382 30.924 277.392 30.462 280.864 30.462C 283.719 30.462 286.24 30.756 288.424 31.344C 290.609 31.932 292.469 32.633 294.01 33.444C 295.55 34.256 296.81 35.096 297.79 35.964C 298.564 36.651 299.19 37.223 299.667 37.681C 299.863 37.869 299.875 38.177 299.692 38.379L 293.023 45.738C 292.846 45.934 292.555 45.961 292.349 45.797C 291.819 45.375 291.224 44.926 290.566 44.448C 289.754 43.86 288.843 43.314 287.836 42.81C 286.829 42.306 285.722 41.886 284.518 41.55C 283.314 41.214 282.04 41.046 280.697 41.046C 279.801 41.046 278.919 41.187 278.051 41.466C 277.183 41.747 276.399 42.125 275.699 42.6C 274.998 43.076 274.439 43.637 274.018 44.28C 273.598 44.925 273.388 45.611 273.388 46.338C 273.388 48.242 274.397 49.782 276.412 50.958C 278.428 52.134 281.2 53.114 284.728 53.898C 286.798 54.402 288.83 55.088 290.818 55.956C 292.805 56.825 294.584 57.959 296.152 59.358C 297.718 60.758 298.979 62.48 299.931 64.524C 300.883 66.569 301.36 69.046 301.36 71.958C 301.36 74.479 300.799 76.803 299.679 78.931C 298.559 81.059 297.033 82.908 295.102 84.475C 293.169 86.043 290.902 87.261 288.297 88.128C 285.693 88.996 282.879 89.431 279.856 89.431C 277.055 89.431 274.507 89.164 272.211 88.632C 269.914 88.1 267.843 87.402 265.995 86.532C 264.147 85.665 262.48 84.671 260.997 83.55C 259.656 82.539 258.487 81.505 257.49 80.448C 257.309 80.256 257.315 79.956 257.494 79.762L 264.965 71.674L 264.965 71.674ZM 309.168 31.973L 346.472 31.973C 346.748 31.973 346.972 32.197 346.972 32.473L 346.972 42.561C 346.972 42.837 346.748 43.061 346.472 43.061L 321.852 43.061C 321.576 43.061 321.352 43.285 321.352 43.561L 321.352 53.481C 321.352 53.757 321.576 53.981 321.852 53.981L 340.76 53.981C 341.036 53.981 341.26 54.205 341.26 54.481L 341.26 64.233C 341.26 64.509 341.036 64.733 340.76 64.733L 321.852 64.733C 321.576 64.733 321.352 64.957 321.352 65.233L 321.352 76.329C 321.352 76.605 321.576 76.829 321.852 76.829L 348.321 76.829C 348.597 76.829 348.821 77.053 348.821 77.329L 348.821 87.5C 348.821 87.776 348.597 88 348.321 88L 309.169 88C 308.893 88 308.669 87.776 308.669 87.5L 308.669 32.473C 308.668 32.197 308.892 31.973 309.168 31.973L 309.168 31.973ZM 357.467 31.973L 369.151 31.973C 369.427 31.973 369.651 32.197 369.651 32.473L 369.651 76.244C 369.651 76.52 369.875 76.744 370.151 76.744L 395.948 76.744C 396.224 76.744 396.448 76.968 396.448 77.244L 396.448 87.5C 396.448 87.776 396.224 88 395.948 88L 357.468 88C 357.192 88 356.968 87.776 356.968 87.5L 356.968 32.473C 356.967 32.197 357.191 31.973 357.467 31.973L 357.467 31.973ZM 405.403 76.985C 405.607 76.805 405.919 76.829 406.102 77.03C 407.617 78.688 409.145 79.91 410.685 80.692C 412.336 81.532 414.31 81.952 416.607 81.952C 417.952 81.952 419.197 81.742 420.345 81.322C 421.492 80.902 422.515 80.245 423.411 79.348C 424.306 78.452 425.007 77.304 425.511 75.904C 426.015 74.505 426.267 72.825 426.267 70.864L 426.267 32.473C 426.267 32.197 426.491 31.973 426.767 31.973L 433.831 31.973C 434.107 31.973 434.331 32.197 434.331 32.473L 434.331 71.536C 434.331 74.785 433.854 77.542 432.902 79.81C 431.95 82.078 430.676 83.925 429.081 85.354C 427.484 86.782 425.622 87.819 423.495 88.461C 421.366 89.105 419.127 89.428 416.774 89.428C 412.629 89.428 409.242 88.699 406.61 87.243C 404.127 85.871 402.044 84.148 400.359 82.078C 400.189 81.869 400.219 81.558 400.421 81.379L 405.403 76.985L 405.403 76.985ZM 446.307 74.731C 446.512 74.545 446.821 74.558 447.006 74.764C 447.705 75.54 448.477 76.326 449.323 77.123C 450.302 78.047 451.409 78.874 452.641 79.602C 453.871 80.331 455.245 80.918 456.757 81.366C 458.269 81.815 459.92 82.038 461.713 82.038C 465.408 82.038 468.292 81.198 470.364 79.518C 472.435 77.837 473.472 75.57 473.472 72.713C 473.472 69.634 472.296 67.324 469.944 65.783C 467.592 64.244 464.203 62.998 459.78 62.045C 457.372 61.541 455.188 60.842 453.228 59.945C 451.267 59.05 449.574 57.929 448.146 56.585C 446.718 55.241 445.612 53.687 444.828 51.923C 444.044 50.159 443.652 48.157 443.652 45.917C 443.652 43.846 444.044 41.885 444.828 40.037C 445.612 38.189 446.788 36.565 448.356 35.165C 449.923 33.766 451.884 32.645 454.236 31.805C 456.589 30.965 459.303 30.545 462.384 30.545C 465.127 30.545 467.493 30.839 469.482 31.427C 471.469 32.015 473.164 32.729 474.564 33.569C 475.963 34.409 477.084 35.278 477.924 36.173C 478.589 36.883 479.13 37.487 479.55 37.986C 479.723 38.192 479.706 38.496 479.508 38.678L 474.851 42.971C 474.65 43.156 474.339 43.15 474.153 42.95C 473.844 42.618 473.449 42.221 472.967 41.759C 472.295 41.116 471.441 40.486 470.405 39.869C 469.368 39.253 468.165 38.735 466.794 38.315C 465.421 37.895 463.839 37.685 462.048 37.685C 460.255 37.685 458.715 37.924 457.428 38.399C 456.139 38.876 455.075 39.491 454.236 40.247C 453.397 41.003 452.779 41.857 452.388 42.809C 451.995 43.762 451.8 44.713 451.8 45.665C 451.8 47.065 452.094 48.256 452.682 49.235C 453.27 50.215 454.123 51.083 455.244 51.839C 456.364 52.595 457.75 53.239 459.402 53.771C 461.053 54.304 462.943 54.821 465.072 55.325C 467.143 55.829 469.174 56.488 471.162 57.299C 473.149 58.111 474.928 59.204 476.496 60.575C 478.063 61.948 479.31 63.627 480.234 65.615C 481.158 67.603 481.62 70.025 481.62 72.881C 481.62 75.29 481.116 77.501 480.108 79.518C 479.1 81.534 477.714 83.285 475.95 84.768C 474.186 86.252 472.099 87.401 469.692 88.211C 467.284 89.023 464.679 89.43 461.88 89.43C 459.247 89.43 456.853 89.121 454.697 88.505C 452.541 87.89 450.581 87.107 448.817 86.153C 447.053 85.201 445.512 84.151 444.197 83.003C 443.023 81.981 442.04 80.968 441.245 79.967C 441.082 79.761 441.114 79.465 441.307 79.288L 446.307 74.731L 446.307 74.731ZM 80.188 15.094L 39.719 15.094L 42.241 1.632C 42.419 0.685 43.244 0 44.205 0L 75.687 0C 76.647 0 77.472 0.684 77.65 1.629L 80.188 15.094L 80.188 15.094ZM 96.042 98.958L 75.792 98.958L 79.685 118.392C 79.872 119.327 80.692 120 81.644 120L 97.574 120C 98.826 120 99.769 118.86 99.537 117.629L 96.042 98.958ZM 20.515 117.631C 20.284 118.862 21.228 120 22.479 120L 38.412 120C 39.364 120 40.184 119.327 40.371 118.392L 44.251 98.958L 24.001 98.958L 20.515 117.631L 20.515 117.631ZM 120.001 26.059L 120.001 87.934C 120.001 91.248 117.318 93.934 114.008 93.934L 5.994 93.934C 2.684 93.934 3.66211e-07 91.248 3.66211e-07 87.934L 3.66211e-07 26.059C 3.66211e-07 22.745 2.683 20.059 5.994 20.059L 114.007 20.059C 117.317 20.059 120.001 22.745 120.001 26.059L 120.001 26.059ZM 60.89 60.422C 60.89 51.194 53.41 43.714 44.182 43.714C 34.954 43.714 27.474 51.194 27.474 60.422C 27.474 69.65 34.954 77.13 44.182 77.13C 53.41 77.13 60.89 69.649 60.89 60.422ZM 94.527 77.039L 69.47 33.639L 61.531 47.39C 64.266 51.022 65.89 55.536 65.89 60.422C 65.89 67.085 62.87 73.054 58.129 77.039L 94.527 77.039Z"/>
</defs>
</svg>
