<svg width="474" height="649" viewBox="0 0 474 649" version="1.1" xmlns="http://www.w3.org/2000/svg" xmlns:xlink="http://www.w3.org/1999/xlink" xmlns:figma="http://www.figma.com/figma/ns">
<title>Group</title>
<desc>Created using Figma</desc>
<g id="Canvas" transform="translate(398 451)" figma:type="canvas">
<g id="Group" style="mix-blend-mode:normal;" figma:type="frame">
<g id="Group" style="mix-blend-mode:normal;" figma:type="frame">
<g id="Vector" style="mix-blend-mode:normal;" figma:type="vector">
<use xlink:href="#path0_stroke" transform="translate(-386.5 -325)" fill="#FFFFFF" style="mix-blend-mode:normal;"/>
</g>
<g id="Vector" style="mix-blend-mode:normal;" figma:type="vector">
<use xlink:href="#path1_fill" transform="translate(-162 -280)" fill="#FFFFFF" fill-opacity="0.1" style="mix-blend-mode:normal;"/>
</g>
<g id="Vector" style="mix-blend-mode:normal;" figma:type="vector">
<use xlink:href="#path2_fill" transform="translate(-304 -223)" fill="#EBEBEB" style="mix-blend-mode:normal;"/>
</g>
<g id="Vector" style="mix-blend-mode:normal;" figma:type="vector">
<use xlink:href="#path3_fill" transform="translate(-163 -223)" fill="#FFFFFF" style="mix-blend-mode:normal;"/>
</g>
</g>
<g id="Group" style="mix-blend-mode:normal;" figma:type="frame">
<g id="Vector" style="mix-blend-mode:normal;" figma:type="vector">
<use xlink:href="#path4_fill" transform="translate(-350.338 -450.552)" fill="#FFFFFF" style="mix-blend-mode:normal;"/>
</g>
<g id="Vector" style="mix-blend-mode:normal;" figma:type="vector">
<use xlink:href="#path5_fill" transform="translate(-251.416 -450.552)" fill="#FFFFFF" style="mix-blend-mode:normal;"/>
</g>
<g id="Vector" style="mix-blend-mode:normal;" figma:type="vector">
<use xlink:href="#path6_fill" transform="translate(-156.917 -450.552)" fill="#FFFFFF" style="mix-blend-mode:normal;"/>
</g>
<g id="Vector" style="mix-blend-mode:normal;" figma:type="vector">
<use xlink:href="#path7_fill" transform="translate(-42.744 -450.552)" fill="#FFFFFF" style="mix-blend-mode:normal;"/>
</g>
</g>
</g>
</g>
<defs>
<path id="path0_stroke" d="M 41 460L 31.0395 460.888L 31.6511 467.75L 38.2804 469.623L 41 460ZM 0 0L 0 -10L -10.9309 -10L -9.96051 0.887785L 0 0ZM 451 0L 460.961 0.887785L 461.931 -10L 451 -10L 451 0ZM 410 460L 412.706 469.627L 419.348 467.76L 419.961 460.888L 410 460ZM 225 512L 222.28 521.623L 224.993 522.39L 227.706 521.627L 225 512ZM 50.9605 459.112L 9.96051 -0.887785L -9.96051 0.887785L 31.0395 460.888L 50.9605 459.112ZM 0 10L 451 10L 451 -10L 0 -10L 0 10ZM 441.039 -0.887785L 400.039 459.112L 419.961 460.888L 460.961 0.887785L 441.039 -0.887785ZM 407.294 450.373L 222.294 502.373L 227.706 521.627L 412.706 469.627L 407.294 450.373ZM 38.2804 469.623L 222.28 521.623L 227.72 502.377L 43.7196 450.377L 38.2804 469.623Z"/>
<path id="path1_fill" d="M 0 435L 149 394L 184 0L 0 0"/>
<path id="path2_fill" d="M 142 114L 67 114L 62 56L 142 56L 142 0L 141 0L 0 0L 1 15L 15 171L 142 171L 142 114ZM 142 261L 141 261L 78 244L 74 199L 44 199L 18 199L 25 288L 141 320L 142 320L 142 261Z"/>
<path id="path3_fill" d="M 0 114L 0 171L 70 171L 63 244L 0 261L 0 320L 116 288L 117 278L 130 129L 132 114L 116 114L 0 114ZM 0 0L 0 35L 0 56L 137 56L 138 44L 141 15L 142 0L 0 0Z"/>
<path id="path4_fill" d="M 1.43874e-06 3.81651e-07L 29.5319 3.81651e-07L 29.5319 29.2431L 56.55 29.2431L 56.55 3.81651e-07L 86.0888 3.81651e-07L 86.0888 88.5518L 56.55 88.5518L 56.55 58.9002L 29.5319 58.9002L 29.5319 88.5504L 1.43874e-06 88.5504L 1.43874e-06 3.81651e-07Z"/>
<path id="path5_fill" d="M 26.0044 29.3639L -4.40085e-06 29.3639L -4.40085e-06 3.81651e-07L 81.5491 3.81651e-07L 81.5491 29.3653L 55.5377 29.3653L 55.5377 88.5518L 26.003 88.5518L 26.003 29.3639L 26.0044 29.3639Z"/>
<path id="path6_fill" d="M -3.04674e-06 3.81651e-07L 30.7965 3.81651e-07L 49.7389 31.1148L 68.6634 3.81651e-07L 99.4724 3.81651e-07L 99.4724 88.5518L 70.0597 88.5518L 70.0597 44.6615L 49.7389 76.1459L 49.2314 76.1459L 28.8969 44.6615L 28.8969 88.5504L -3.04674e-06 88.5504L -3.04674e-06 3.81651e-07Z"/>
<path id="path7_fill" d="M -8.12465e-06 3.81651e-07L 29.5458 3.81651e-07L 29.5458 59.2837L 71.0816 59.2837L 71.0816 88.5504L -8.12465e-06 88.5504L -8.12465e-06 3.81651e-07Z"/>
</defs>
</svg>
