<svg id="Layer_1" data-name="Layer 1" xmlns="http://www.w3.org/2000/svg" viewBox="0 0 55.85 64.49"><defs><style>.cls-1{fill:#fff;}</style></defs><title>github-hex</title><polygon points="27.92 0 55.85 16.12 55.85 48.37 27.92 64.49 0 48.37 0 16.12 27.92 0"/><path class="cls-1" d="M44.25,23.24a18.78,18.78,0,0,0-6.86-6.86,18.44,18.44,0,0,0-9.47-2.53,18.45,18.45,0,0,0-9.47,2.53,18.77,18.77,0,0,0-6.86,6.86,18.92,18.92,0,0,0,1.07,20.55A18.47,18.47,0,0,0,22,50.6a1.1,1.1,0,0,0,1-.17,1,1,0,0,0,.32-0.74s0-.49,0-1.33,0-1.56,0-2.18l-0.56.1a7.2,7.2,0,0,1-1.36.09,10.38,10.38,0,0,1-1.71-.17A3.81,3.81,0,0,1,18,45.46,3.12,3.12,0,0,1,16.87,44l-0.25-.57a6.14,6.14,0,0,0-.77-1.25,3,3,0,0,0-1.07-.93l-0.17-.12a1.8,1.8,0,0,1-.32-0.29,1.35,1.35,0,0,1-.22-0.34,0.21,0.21,0,0,1,.12-0.28A1.59,1.59,0,0,1,14.91,40l0.49,0.07a3.58,3.58,0,0,1,1.22.59A4,4,0,0,1,17.81,42a4.33,4.33,0,0,0,1.36,1.53,2.89,2.89,0,0,0,1.61.53,7,7,0,0,0,1.4-.12,4.88,4.88,0,0,0,1.1-.37A4,4,0,0,1,24.49,41,16.81,16.81,0,0,1,22,40.59a10,10,0,0,1-2.31-1,6.61,6.61,0,0,1-2-1.64A7.91,7.91,0,0,1,16.4,35.4a12.26,12.26,0,0,1-.5-3.68,7.16,7.16,0,0,1,1.94-5.06,6.6,6.6,0,0,1,.17-5,3.44,3.44,0,0,1,2.11.33,14.76,14.76,0,0,1,2.05.95q0.65,0.39,1,.66a17.73,17.73,0,0,1,9.43,0L33.57,23a13.21,13.21,0,0,1,2.26-1.08,3.22,3.22,0,0,1,2-.27,6.54,6.54,0,0,1,.2,5A7.16,7.16,0,0,1,40,31.72a12.4,12.4,0,0,1-.5,3.7A7.6,7.6,0,0,1,38.15,38a6.86,6.86,0,0,1-2,1.63,10,10,0,0,1-2.31,1,16.8,16.8,0,0,1-2.52.44,4.37,4.37,0,0,1,1.28,3.49v5.18a1,1,0,0,0,.31.74,1.07,1.07,0,0,0,1,.17,18.47,18.47,0,0,0,9.29-6.81A18.92,18.92,0,0,0,44.25,23.24Z" transform="translate(0 0)"/></svg>