<?xml version="1.0" encoding="utf-8"?>
<!-- Generator: Adobe Illustrator 19.2.1, SVG Export Plug-In . SVG Version: 6.00 Build 0)  -->
<svg version="1.1" id="Layer_1" xmlns="http://www.w3.org/2000/svg" xmlns:xlink="http://www.w3.org/1999/xlink" x="0px" y="0px"
	 viewBox="0 0 58.8 68" style="enable-background:new 0 0 58.8 68;" xml:space="preserve">
<style type="text/css">
	.st0{stroke:#292929;stroke-width:3;stroke-miterlimit:10;}
	.st1{fill:#FFFFFF;}
</style>
<title>github-hex</title>
<polygon class="st0" points="29.4,1.7 57.3,17.9 57.3,50.1 29.4,66.2 1.5,50.1 1.5,17.9 "/>
<path class="st1" d="M45.8,25c-1.6-2.8-4-5.2-6.9-6.9c-2.9-1.7-6.1-2.6-9.5-2.5c-3.3,0-6.6,0.8-9.5,2.5c-2.8,1.6-5.2,4-6.9,6.9
	c-3.7,6.5-3.3,14.5,1.1,20.6c2.3,3.2,5.6,5.6,9.3,6.8c0.3,0.1,0.7,0,1-0.2c0.2-0.2,0.3-0.5,0.3-0.7c0,0,0-0.5,0-1.3s0-1.6,0-2.2
	L24.3,48c-0.4,0.1-0.9,0.1-1.4,0.1c-0.6,0-1.1-0.1-1.7-0.2c-0.6-0.1-1.2-0.4-1.7-0.7c-0.5-0.4-0.9-0.9-1.1-1.5l-0.3-0.6
	c-0.2-0.4-0.5-0.9-0.8-1.3c-0.3-0.4-0.6-0.7-1.1-0.9l-0.2-0.1c-0.1-0.1-0.2-0.2-0.3-0.3c-0.1-0.1-0.2-0.2-0.2-0.3
	c0-0.1,0-0.2,0.1-0.3c0,0,0,0,0,0c0.2-0.1,0.5-0.2,0.7-0.2l0.5,0.1c0.4,0.1,0.9,0.3,1.2,0.6c0.5,0.4,0.9,0.8,1.2,1.3
	c0.3,0.6,0.8,1.1,1.4,1.5c0.5,0.3,1,0.5,1.6,0.5c0.5,0,0.9,0,1.4-0.1c0.4-0.1,0.7-0.2,1.1-0.4c0.1-1,0.5-1.9,1.2-2.6
	c-0.8-0.1-1.7-0.2-2.5-0.4c-0.8-0.2-1.6-0.6-2.3-1c-0.8-0.4-1.4-1-2-1.6c-0.6-0.8-1-1.6-1.3-2.5c-0.4-1.2-0.5-2.4-0.5-3.7
	c0-1.9,0.7-3.7,1.9-5.1c-0.6-1.6-0.5-3.4,0.2-5c0.7-0.1,1.5,0,2.1,0.3c0.7,0.3,1.4,0.6,2,1c0.4,0.3,0.8,0.5,1,0.7
	c3.1-0.9,6.3-0.9,9.4,0l1-0.6c0.7-0.4,1.5-0.8,2.3-1.1c0.6-0.3,1.3-0.4,2-0.3c0.7,1.6,0.8,3.4,0.2,5c1.3,1.4,2,3.2,2,5.1
	c0,1.3-0.1,2.5-0.5,3.7c-0.3,0.9-0.7,1.8-1.3,2.6c-0.6,0.7-1.2,1.2-2,1.6c-0.7,0.4-1.5,0.8-2.3,1c-0.8,0.2-1.7,0.4-2.5,0.4
	c0.9,0.9,1.4,2.2,1.3,3.5v5.2c0,0.3,0.1,0.5,0.3,0.7c0.3,0.2,0.7,0.3,1,0.2c3.7-1.2,7-3.6,9.3-6.8C49.1,39.5,49.5,31.4,45.8,25z"/>
</svg>
