<svg width="60" height="69" viewBox="0 0 60 69" fill="none" xmlns="http://www.w3.org/2000/svg">
<path d="M30.1616 2.00002L58.0916 18.12V50.37L30.1616 66.49L2.24164 50.37V18.12L30.1616 2.00002Z" fill="black" stroke="#292929" stroke-width="3" stroke-miterlimit="10"/>
<path d="M48.5586 17.295C48.5586 17.295 41.5201 29.2485 41.1629 36.2012C41.1629 36.2012 29.9038 38.144 23.4902 49.0331L21.154 48.3714L19.3659 46.6614C25.7795 35.7723 22.4249 25.1981 22.4249 25.1981C28.1861 21.418 35.226 9.46453 35.226 9.46453" fill="white"/>
<path d="M30.8522 34.245C32.6447 34.245 34.0978 32.7919 34.0978 30.9994C34.0978 29.2069 32.6447 27.7538 30.8522 27.7538C29.0597 27.7538 27.6066 29.2069 27.6066 30.9994C27.6066 32.7919 29.0597 34.245 30.8522 34.245Z" fill="#010101"/>
<path d="M29.6695 33.3275L16.2361 56.7076" stroke="#010101" stroke-width="1.15" stroke-miterlimit="10"/>
<path d="M54.8058 17.9182L31.9339 4.77699L28.7295 10.3541L51.6014 23.4953L54.8058 17.9182Z" fill="white"/>
</svg>
