<?xml version="1.0" encoding="utf-8"?>
<!-- Generator: Adobe Illustrator 19.2.1, SVG Export Plug-In . SVG Version: 6.00 Build 0)  -->
<svg version="1.1" id="Layer_1" xmlns="http://www.w3.org/2000/svg" xmlns:xlink="http://www.w3.org/1999/xlink" x="0px" y="0px"
	 viewBox="0 0 174.1 35.9" style="enable-background:new 0 0 174.1 35.9;" xml:space="preserve">
<style type="text/css">
	.st0{fill:none;stroke:#000000;stroke-miterlimit:10;}
	.st1{fill:#821517;stroke:#F89C2A;stroke-width:2;stroke-miterlimit:10;}
	.st2{enable-background:new    ;}
	.st3{fill:#FFFFFF;}
</style>
<title>portfolio</title>
<path class="st0" d="M80.8,54.2"/>
<polygon class="st1" points="155.7,34.9 172.7,18 155.7,1 18.4,1 1.4,18 18.4,34.9 "/>
<g class="st2">
	<path class="st3" d="M36.4,27.3V8.2h8.2c1.9,0,3.3,0.5,4.1,1.6c0.8,1,1.2,2.4,1.2,4.3c0,1.1-0.1,2.1-0.4,2.9
		c-0.2,0.8-0.5,1.4-0.9,1.8c-0.3,0.4-0.8,0.8-1.3,1c-0.7,0.3-1.4,0.5-2.3,0.5c-0.6,0-1.6-0.1-3-0.2c-1.4-0.2-2.1-0.3-2.1-0.3v7.6
		H36.4z M44.4,11.4h-4.3V17h4.3c0.4,0,0.8-0.1,1-0.2c0.6-0.3,0.9-1.2,0.9-2.7C46.3,12.3,45.6,11.4,44.4,11.4z"/>
	<path class="st3" d="M51.8,20.6c0-1.2,0.1-2.2,0.2-3c0.1-0.8,0.4-1.5,0.7-2.1c0.3-0.6,0.7-1,1.2-1.3c1-0.6,2.4-0.9,4.2-0.9
		c2.4,0,4,0.5,4.9,1.6c0.9,1,1.4,2.9,1.4,5.6S64,25,63.1,25.9s-2.6,1.5-5,1.5c-2.4,0-4-0.5-5-1.6C52.3,24.8,51.8,23.1,51.8,20.6z
		 M56,17c-0.2,0.3-0.4,0.7-0.4,1.3c-0.1,0.5-0.1,1.3-0.1,2.2c0,0.9,0,1.7,0.1,2.2c0.1,0.5,0.2,0.9,0.5,1.2c0.2,0.3,0.5,0.4,0.8,0.5
		c0.3,0.1,0.7,0.1,1.2,0.1c0.5,0,0.9,0,1.1-0.1c0.3,0,0.5-0.1,0.7-0.3c0.2-0.1,0.4-0.4,0.5-0.7c0.2-0.6,0.3-1.5,0.3-2.5
		c0-1.1,0-1.9-0.1-2.3s-0.1-0.9-0.2-1.3c-0.1-0.3-0.3-0.6-0.5-0.7c-0.4-0.3-1-0.4-1.7-0.4c-0.7,0-1.2,0-1.5,0.1
		C56.5,16.4,56.2,16.6,56,17z"/>
	<path class="st3" d="M66.7,27.3V13.4h3.1l0.6,1.7c1.3-1.3,2.6-1.9,4-1.9c0.7,0,1.3,0.1,1.5,0.2V17c-0.5-0.1-1.1-0.1-2-0.1
		s-1.5,0.1-2.1,0.3s-1,0.6-1.4,1.2v8.9H66.7z"/>
	<path class="st3" d="M77,16.2v-2l2.2-0.8l0.6-3.9h3.1v3.9H86v2.8h-3.1v5.6c0,0.9,0.1,1.6,0.3,2s0.5,0.6,0.9,0.8
		c1,0.4,1.6,0.5,1.7,0.5v2.2h-3.2c-2.3,0-3.4-1.7-3.4-5v-6.1H77z"/>
</g>
<g class="st2">
	<path class="st3" d="M86.6,16.2v-2.4l2.2-0.4v-2.6c0-1.3,0.3-2.3,0.9-3c0.6-0.7,1.6-1.1,3-1.1s2.6,0.2,3.6,0.6v2.2l-2.5,0
		c-0.8,0-1.3,0.2-1.4,0.8c-0.1,0.3-0.1,0.8-0.1,1.4v1.7h3.2v2.8h-3.2v11.1h-3.7V16.2H86.6z"/>
</g>
<g class="st2">
	<path class="st3" d="M96.9,20.6c0-1.2,0.1-2.2,0.2-3s0.4-1.5,0.7-2.1c0.3-0.6,0.7-1,1.2-1.3c1-0.6,2.4-0.9,4.2-0.9
		c2.4,0,4,0.5,4.9,1.6c0.9,1,1.4,2.9,1.4,5.6s-0.4,4.5-1.3,5.5s-2.6,1.5-5,1.5c-2.4,0-4-0.5-5-1.6C97.4,24.8,96.9,23.1,96.9,20.6z
		 M101.1,17c-0.2,0.3-0.4,0.7-0.4,1.3c-0.1,0.5-0.1,1.3-0.1,2.2c0,0.9,0,1.7,0.1,2.2c0.1,0.5,0.2,0.9,0.5,1.2
		c0.2,0.3,0.5,0.4,0.8,0.5c0.3,0.1,0.7,0.1,1.2,0.1s0.9,0,1.1-0.1c0.3,0,0.5-0.1,0.7-0.3c0.2-0.1,0.4-0.4,0.5-0.7
		c0.2-0.6,0.3-1.5,0.3-2.5c0-1.1,0-1.9-0.1-2.3c0-0.5-0.1-0.9-0.2-1.3c-0.1-0.3-0.3-0.6-0.5-0.7c-0.4-0.3-1-0.4-1.7-0.4
		c-0.7,0-1.2,0-1.5,0.1C101.6,16.4,101.3,16.6,101.1,17z"/>
	<path class="st3" d="M111.7,22.4V6.9h3.7v14.9c0,0.9,0.1,1.6,0.3,1.9s0.5,0.6,0.9,0.8c1,0.4,1.6,0.5,1.7,0.5v2.2h-3
		c-1.2,0-2.1-0.4-2.7-1.1S111.7,24.1,111.7,22.4z"/>
	<path class="st3" d="M119.7,11.4V9.1c0-0.5,0.2-0.7,0.6-0.7h2.7c0.4,0,0.6,0.2,0.6,0.7v2.3c0,0.4-0.2,0.6-0.6,0.6h-2.7
		c-0.2,0-0.3-0.1-0.5-0.2C119.8,11.7,119.7,11.6,119.7,11.4z M119.8,27.3V13.4h3.7v13.9H119.8z"/>
	<path class="st3" d="M125.6,20.6c0-1.2,0.1-2.2,0.2-3c0.1-0.8,0.4-1.5,0.7-2.1s0.7-1,1.2-1.3c1-0.6,2.4-0.9,4.2-0.9
		c2.4,0,4,0.5,4.9,1.6c0.9,1,1.4,2.9,1.4,5.6s-0.4,4.5-1.3,5.5s-2.6,1.5-5,1.5c-2.4,0-4-0.5-5-1.6C126.1,24.8,125.6,23.1,125.6,20.6
		z M129.8,17c-0.2,0.3-0.4,0.7-0.4,1.3c-0.1,0.5-0.1,1.3-0.1,2.2c0,0.9,0,1.7,0.1,2.2c0.1,0.5,0.2,0.9,0.5,1.2
		c0.2,0.3,0.5,0.4,0.8,0.5c0.3,0.1,0.7,0.1,1.2,0.1c0.5,0,0.9,0,1.1-0.1c0.3,0,0.5-0.1,0.7-0.3c0.2-0.1,0.4-0.4,0.5-0.7
		c0.2-0.6,0.3-1.5,0.3-2.5c0-1.1,0-1.9-0.1-2.3c0-0.5-0.1-0.9-0.2-1.3c-0.1-0.3-0.3-0.6-0.5-0.7c-0.4-0.3-1-0.4-1.7-0.4
		c-0.7,0-1.2,0-1.5,0.1C130.3,16.4,130,16.6,129.8,17z"/>
</g>
</svg>
