<svg width="58" height="67" viewBox="0 0 58 67" version="1.1" xmlns="http://www.w3.org/2000/svg" xmlns:xlink="http://www.w3.org/1999/xlink" xmlns:figma="http://www.figma.com/figma/ns">
<title>Group</title>
<desc>Created using Figma</desc>
<g id="Canvas" transform="translate(-352 163)" figma:type="canvas">
<g id="Group" style="mix-blend-mode:normal;" figma:type="frame">
<g id="Vector" style="mix-blend-mode:normal;" figma:type="vector">
<use xlink:href="#path0_fill" transform="translate(353.475 -161.303)" style="mix-blend-mode:normal;"/>
</g>
<g id="Vector (Stroke)" style="mix-blend-mode:normal;" figma:type="vector">
<use xlink:href="#path1_fill" transform="translate(352 -163)" fill="#292929" style="mix-blend-mode:normal;"/>
</g>
<g id="Union" style="mix-blend-mode:normal;" figma:type="vector-operation">
<use xlink:href="#path2_fill" transform="translate(363 -140)" fill="#FFFFFF" style="mix-blend-mode:normal;"/>
</g>
<g id="Intersect" style="mix-blend-mode:normal;" figma:type="vector-operation">
<use xlink:href="#path3_fill" transform="translate(371.169 -147)" fill="#FFFFFF" style="mix-blend-mode:normal;"/>
</g>
</g>
</g>
<defs>
<path id="path0_fill" d="M 27.5205 1.8812e-08L 55.0508 15.899L 55.0508 47.7069L 27.5205 63.6059L 0 47.7069L 0 15.899L 27.5205 1.8812e-08Z"/>
<path id="path1_fill" fill-rule="evenodd" d="M 28.9949 0L 29.735 0.42742L 57.2654 16.3264L 58 16.7507L 58 17.5961L 58 49.4039L 58 50.2493L 57.2654 50.6736L 29.735 66.5726L 28.9949 67L 28.2549 66.5725L 0.734401 50.6735L 0 50.2492L 0 49.4039L 0 17.5961L 0 16.7508L 0.734401 16.3265L 28.2549 0.427534L 28.9949 0ZM 28.9952 3.39409L 2.94915 18.4413L 2.94915 48.5587L 28.9952 63.6059L 55.0508 48.5585L 55.0508 18.4414L 28.9952 3.39409Z"/>
<path id="path2_fill" fill-rule="evenodd" d="M 0 14.6258L 0 9.37419L 0 0.635895C 0 0.286148 0.265167 0 0.618744 0L 35.3732 0C 35.7348 0 36 0.286148 36 0.635895L 36 9.37419L 36 14.6258L 36 23.3641C 36 23.7138 35.7348 24 35.3813 24L 0.62677 24C 0.265167 24 0 23.7138 0 23.3641L 0 14.6258Z"/>
<path id="path3_fill" fill-rule="evenodd" d="M 19.661 7.82841L 19.661 5.02527C 19.5586 2.15077 17.4389 0 14.4181 0L 5.24295 0C 2.23236 0 0.102417 2.15077 0 5.02527L 0 7.82841L 3.27686 7.82841L 3.27686 5.42281L 3.27686 5.32088L 3.27686 5.21893C 3.27686 4.23019 4.1575 3.26184 5.20197 3.26184L 14.459 3.26184C 15.4933 3.26184 16.3842 4.22 16.3842 5.21893L 16.3842 5.32088L 16.3842 5.42281L 16.3842 7.82841L 19.661 7.82841Z"/>
</defs>
</svg>
