<?xml version="1.0" encoding="utf-8"?>
<!-- Generator: Adobe Illustrator 19.2.1, SVG Export Plug-In . SVG Version: 6.00 Build 0)  -->
<svg version="1.1" id="Layer_1" xmlns="http://www.w3.org/2000/svg" xmlns:xlink="http://www.w3.org/1999/xlink" x="0px" y="0px"
	 viewBox="0 0 58.9 67.7" style="enable-background:new 0 0 58.9 67.7;" xml:space="preserve">
<style type="text/css">
	.st0{stroke:#292929;stroke-width:3;stroke-miterlimit:10;}
	.st1{fill:#FFFFFF;}
</style>
<title>stackoverflow-hex</title>
<path class="st0" d="M1.5,50.3c0-10.9,0-21.8,0-32.7c0.3-0.1,0.6-0.2,0.9-0.4l16.5-9.6l10.5-6.1h0.2c0.3,0.2,0.6,0.4,0.9,0.6
	c8.7,5.1,17.5,10.1,26.2,15.2c0.5,0.2,0.8,0.8,0.8,1.3c0,10.2,0,20.4,0,30.6c0.1,0.6-0.2,1.1-0.8,1.4C47.8,55.7,39,60.8,30.2,65.9
	c-0.5,0.3-1.1,0.3-1.6,0c-8.8-5.1-17.5-10.2-26.2-15.2C2.1,50.6,1.8,50.4,1.5,50.3z"/>
<polygon points="12.5,37.3 12.5,52.3 46.1,52.3 46.1,37.3 42.4,37.3 42.4,48.5 16.1,48.5 16.1,37.3 12.4,37.3 "/>
<polygon points="20,44.8 38.6,44.8 38.6,41.1 19.9,41.1 19.9,44.8 "/>
<polygon points="41.4,32 24.3,24 22.7,27.5 39.8,35.4 "/>
<polygon points="33.6,12.5 44.9,27.6 48,25.3 36.7,10.2 "/>
<polygon points="20.2,36.3 38.7,40.2 39.4,36.4 21,32.6 "/>
<polygon points="41.8,31.2 44.3,28.2 29.8,16.2 27.3,19.1 "/>
<path class="st1" d="M12.4,37.3h3.7v11.1h26.3V37.3h3.7v15H12.4V37.3z"/>
<path class="st1" d="M19.9,44.8v-3.7h18.7v3.7H19.9z"/>
<path class="st1" d="M41.3,32l-1.6,3.5l-17.1-7.9l1.6-3.5L41.3,32z"/>
<path class="st1" d="M33.6,12.5l3.1-2.3L48,25.3l-3.1,2.3L33.6,12.5z"/>
<path class="st1" d="M20.2,36.3l0.8-3.7l18.4,3.9l-0.8,3.7L20.2,36.3z"/>
<path class="st1" d="M41.8,31.2L27.3,19.1l2.5-2.9l14.5,12L41.8,31.2z"/>
</svg>
