<svg id="Layer_1" data-name="Layer 1" xmlns="http://www.w3.org/2000/svg" viewBox="0 0 55.95 64.68"><defs><style>.cls-1{fill:#fff;}</style></defs><title>stackoverflow-hex</title><path d="M0,48.69Q0,32.34,0,16a7.84,7.84,0,0,0,.87-0.38L17.38,6,27.83-.1H28c0.3,0.19.59,0.39,0.9,0.57Q42,8.08,55.14,15.67A1.31,1.31,0,0,1,55.9,17q0,15.31,0,30.62a1.37,1.37,0,0,1-.78,1.4Q41.9,56.64,28.72,64.32a1.35,1.35,0,0,1-1.59,0Q14,56.69.91,49.11A9.25,9.25,0,0,0,0,48.69Zm11-13v15H44.58v-15H40.87V46.87H14.61V35.72H10.9Zm7.48,7.47H37.09v-3.7H18.38v3.7Zm21.46-12.8-17.1-7.95-1.6,3.47,17.09,7.95ZM32.14,10.9L43.4,26l3.08-2.29L35.22,8.61ZM18.71,34.71l18.45,3.87,0.76-3.74L19.49,31Zm21.63-5.1,2.45-3L28.29,14.6l-2.45,2.94Z" transform="translate(0.05 0.1)"/><path class="cls-1" d="M10.9,35.72h3.71V46.87H40.87V35.72h3.71v15H10.9v-15Z" transform="translate(0.05 0.1)"/><path class="cls-1" d="M18.38,43.18v-3.7H37.09v3.7H18.38Z" transform="translate(0.05 0.1)"/><path class="cls-1" d="M39.84,30.38l-1.62,3.47L21.14,25.91l1.6-3.47Z" transform="translate(0.05 0.1)"/><path class="cls-1" d="M32.14,10.9l3.07-2.29L46.48,23.72,43.4,26Z" transform="translate(0.05 0.1)"/><path class="cls-1" d="M18.71,34.71L19.49,31l18.43,3.87-0.76,3.74Z" transform="translate(0.05 0.1)"/><path class="cls-1" d="M40.34,29.61L25.84,17.54l2.45-2.94L42.78,26.65Z" transform="translate(0.05 0.1)"/></svg>