<svg id="Layer_1" data-name="Layer 1" xmlns="http://www.w3.org/2000/svg" viewBox="0 0 55.85 64.49"><defs><style>.cls-1{fill:#fff;}</style></defs><title>twitter-hex</title><polygon points="27.92 0 55.85 16.12 55.85 48.37 27.92 64.49 0 48.37 0 16.12 27.92 0"/><path class="cls-1" d="M47.15,20.34a15.73,15.73,0,0,1-4.54,1.22,7.65,7.65,0,0,0,3.47-4.34,15.47,15.47,0,0,1-5,1.9,7.9,7.9,0,0,0-11.33-.18,7.6,7.6,0,0,0-2.31,5.58,8.75,8.75,0,0,0,.2,1.81,22,22,0,0,1-9.07-2.43,22.34,22.34,0,0,1-7.19-5.82,7.9,7.9,0,0,0-.12,7.74,7.87,7.87,0,0,0,2.56,2.81,7.82,7.82,0,0,1-3.56-1v0.1a7.62,7.62,0,0,0,1.79,5,7.75,7.75,0,0,0,4.53,2.72,8.17,8.17,0,0,1-2.07.27A10.05,10.05,0,0,1,13,35.59a7.9,7.9,0,0,0,7.37,5.47,15.43,15.43,0,0,1-9.78,3.37,16.78,16.78,0,0,1-1.9-.1,21.89,21.89,0,0,0,12.1,3.54,23,23,0,0,0,7.88-1.33A20,20,0,0,0,35,43a23.84,23.84,0,0,0,4.5-5.14,22.9,22.9,0,0,0,2.82-6.06,22.4,22.4,0,0,0,.93-6.33q0-.68,0-1A16.51,16.51,0,0,0,47.15,20.34Z"/></svg>